<svg width="16" height="18" viewBox="0 0 16 18" fill="none" xmlns="http://www.w3.org/2000/svg">
<path fill-rule="evenodd" clip-rule="evenodd" d="M11.6757 1.30718L11.6766 1.93187C13.9721 2.11178 15.4885 3.67599 15.4909 6.07479L15.5 13.0963C15.5033 15.7116 13.8602 17.3208 11.2265 17.325L4.79324 17.3333C2.176 17.3367 0.512354 15.6891 0.509063 13.0663L0.500012 6.12727C0.496721 3.71264 1.95961 2.15259 4.25515 1.94186L4.25433 1.31718C4.2535 0.950693 4.52502 0.674997 4.88704 0.674997C5.24906 0.674165 5.52057 0.949027 5.5214 1.31551L5.52222 1.89855L10.4095 1.89189L10.4087 1.30885C10.4078 0.942363 10.6794 0.667501 11.0414 0.666668C11.3952 0.665835 11.6749 0.940698 11.6757 1.30718ZM1.7679 6.38464L14.2247 6.36798V6.07646C14.1893 4.28569 13.2908 3.34616 11.6782 3.20623L11.679 3.84757C11.679 4.20573 11.4001 4.48975 11.0463 4.48975C10.6843 4.49059 10.412 4.20739 10.412 3.84924L10.4111 3.17458L5.52386 3.18124L5.52469 3.85507C5.52469 4.21406 5.25399 4.49725 4.89197 4.49725C4.52995 4.49808 4.25762 4.21572 4.25762 3.85674L4.25679 3.21539C2.65239 3.37614 1.76461 4.31901 1.76708 6.1256L1.7679 6.38464ZM10.6999 10.1702V10.1794C10.7082 10.5625 11.0208 10.8532 11.4001 10.8449C11.7704 10.8357 12.0657 10.5184 12.0575 10.1353C12.0402 9.76878 11.7432 9.46976 11.3738 9.47059C10.9953 9.47892 10.6991 9.7871 10.6999 10.1702ZM11.3795 13.91C11.0011 13.9017 10.6958 13.586 10.695 13.2029C10.6868 12.8197 10.9904 12.5024 11.3688 12.4932H11.3771C11.7638 12.4932 12.0773 12.8089 12.0773 13.2004C12.0781 13.5919 11.7654 13.9092 11.3795 13.91ZM7.31011 10.1836C7.32656 10.5667 7.64004 10.8657 8.01851 10.8491C8.38876 10.8316 8.68414 10.5151 8.66768 10.1319C8.65863 9.75711 8.35421 9.46559 7.98396 9.46643C7.60548 9.48309 7.30928 9.80043 7.31011 10.1836ZM8.0218 13.8726C7.64333 13.8892 7.33068 13.5902 7.3134 13.2071C7.3134 12.8239 7.60877 12.5074 7.98725 12.4899C8.3575 12.4891 8.66275 12.7806 8.67097 13.1546C8.68825 13.5386 8.39205 13.8551 8.0218 13.8726ZM3.92028 10.2127C3.93673 10.5959 4.25021 10.8957 4.62869 10.8782C4.99894 10.8616 5.29431 10.5442 5.27703 10.1611C5.26881 9.78627 4.96438 9.49475 4.59331 9.49558C4.21483 9.51224 3.91946 9.82958 3.92028 10.2127ZM4.63198 13.8767C4.2535 13.8942 3.94085 13.5944 3.92357 13.2112C3.92275 12.8281 4.21895 12.5107 4.59742 12.4941C4.96767 12.4932 5.27292 12.7848 5.28115 13.1596C5.29842 13.5427 5.00305 13.8601 4.63198 13.8767Z" fill="#5329FF"/>
</svg>
