<svg width="12" height="12" viewBox="0 0 12 12" fill="none" xmlns="http://www.w3.org/2000/svg">
<path fill-rule="evenodd" clip-rule="evenodd" d="M3.474 0.166199H8.5315C10.509 0.166199 11.8332 1.55453 11.8332 3.61953V8.38595C11.8332 10.4451 10.509 11.8329 8.5315 11.8329H3.474C1.4965 11.8329 0.166504 10.4451 0.166504 8.38595V3.61953C0.166504 1.55453 1.4965 0.166199 3.474 0.166199ZM7.75567 7.74953C7.954 7.55178 7.954 7.23095 7.75567 7.03261L6.71734 5.99428L7.75567 4.95537C7.954 4.75762 7.954 4.43095 7.75567 4.23262C7.55734 4.0337 7.2365 4.0337 7.03234 4.23262L5.99984 5.27037L4.9615 4.23262C4.75734 4.0337 4.4365 4.0337 4.23817 4.23262C4.03984 4.43095 4.03984 4.75762 4.23817 4.95537L5.2765 5.99428L4.23817 7.02678C4.03984 7.23095 4.03984 7.55178 4.23817 7.74953C4.33734 7.8487 4.4715 7.90178 4.59984 7.90178C4.734 7.90178 4.86234 7.8487 4.9615 7.74953L5.99984 6.71762L7.03817 7.74953C7.13734 7.85511 7.26567 7.90178 7.394 7.90178C7.52817 7.90178 7.6565 7.8487 7.75567 7.74953Z" fill="#FF6056"/>
</svg>
