<svg width="16" height="18" viewBox="0 0 16 18" fill="none" xmlns="http://www.w3.org/2000/svg">
<path fill-rule="evenodd" clip-rule="evenodd" d="M5.43811 12.6583H9.92656C10.2648 12.6583 10.5454 12.375 10.5454 12.0333C10.5454 11.6917 10.2648 11.4167 9.92656 11.4167H5.43811C5.09982 11.4167 4.8193 11.6917 4.8193 12.0333C4.8193 12.375 5.09982 12.6583 5.43811 12.6583ZM8.22689 7.25H5.43811C5.09982 7.25 4.8193 7.53333 4.8193 7.875C4.8193 8.21666 5.09982 8.49166 5.43811 8.49166H8.22689C8.56517 8.49166 8.8457 8.21666 8.8457 7.875C8.8457 7.53333 8.56517 7.25 8.22689 7.25ZM14.115 6.52134C14.309 6.5191 14.5202 6.51666 14.712 6.51666C14.9183 6.51666 15.0833 6.68333 15.0833 6.89166V13.5917C15.0833 15.6583 13.4249 17.3333 11.3787 17.3333H4.81105C2.66583 17.3333 0.916656 15.575 0.916656 13.4083V4.425C0.916656 2.35833 2.58332 0.666664 4.63778 0.666664H9.04372C9.25824 0.666664 9.42326 0.841664 9.42326 1.05V3.73333C9.42326 5.25833 10.6691 6.50833 12.179 6.51666C12.5317 6.51666 12.8426 6.5193 13.1147 6.52161C13.3264 6.5234 13.5146 6.525 13.6807 6.525C13.7981 6.525 13.9504 6.52324 14.115 6.52134ZM14.3426 5.305C13.6643 5.3075 12.8648 5.305 12.2898 5.29916C11.3772 5.29916 10.6256 4.54 10.6256 3.61833V1.42166C10.6256 1.0625 11.0571 0.884164 11.3038 1.14333C11.7508 1.61282 12.3654 2.25839 12.9769 2.90079C13.5855 3.54002 14.191 4.17613 14.6256 4.6325C14.8665 4.885 14.6899 5.30416 14.3426 5.305Z" fill="#5329FF"/>
</svg>
